<?xml version="1.0" encoding="UTF-8"?>
<svg xmlns="http://www.w3.org/2000/svg" viewBox="0 0 612 792">
  <title>Curves generated by point2curveV3.py</title>
  <g id="curves">
    <path id="ring2" d="M 250.95 248.6 C 180.24 248.6 109.53 319.31 109.53 390.02 C 109.53 460.73 180.24 531.44 250.95 531.44 C 321.66 531.44 392.37 460.73 392.37 390.02 C 392.37 319.31 321.66 248.6 250.95 248.6 Z" fill="none" stroke="#000000" stroke-width="5" stroke-linecap="round" stroke-linejoin="round"/>
    <path id="ring1" d="M 392.37 248.6 C 321.66 248.6 250.95 319.31 250.95 390.02 C 250.95 460.73 321.66 531.44 392.37 531.44 C 463.08 531.44 533.79 460.73 533.79 390.02 C 533.79 319.31 463.08 248.6 392.37 248.6 Z" fill="none" stroke="#000000" stroke-width="5" stroke-linecap="round" stroke-linejoin="round"/>
    <g id="anchor_points">
      <g id="ring2_anchors">
        <circle cx="250.95" cy="248.6" r="2" fill="#000000" stroke="none"/>
        <circle cx="109.53" cy="390.02" r="2" fill="#000000" stroke="none"/>
        <circle cx="250.95" cy="531.44" r="2" fill="#000000" stroke="none"/>
        <circle cx="392.37" cy="390.02" r="2" fill="#000000" stroke="none"/>
      </g>
      <g id="ring1_anchors">
        <circle cx="392.37" cy="248.6" r="2" fill="#000000" stroke="none"/>
        <circle cx="250.95" cy="390.02" r="2" fill="#000000" stroke="none"/>
        <circle cx="392.37" cy="531.44" r="2" fill="#000000" stroke="none"/>
        <circle cx="533.79" cy="390.02" r="2" fill="#000000" stroke="none"/>
      </g>
    </g>
  </g>
</svg>
