<?xml version='1.0' encoding='utf-8'?>
<svg xmlns="http://www.w3.org/2000/svg" viewBox="94.03 233.1 455.26 313.84">
  <title>SVG crossing gap options</title>
  <desc>Generated by svg_crossing_gap_optionsV3.py. Base curves have real gaps. Each crossing has two editable overpass choices.</desc>

  <g id="original_graph_reference" fill="none" stroke="#888888" stroke-width="7.0" stroke-linecap="round" stroke-linejoin="round" opacity="0.35" display="none">
    <path id="original_curve_001_from_ring2" d="M 250.95,248.60 C 180.24,248.60 109.53,319.31 109.53,390.02 C 109.53,460.73 180.24,531.44 250.95,531.44 C 321.66,531.44 392.37,460.73 392.37,390.02 C 392.37,319.31 321.66,248.60 250.95,248.60 Z" />
    <path id="original_curve_002_from_ring1" d="M 392.37,248.60 C 321.66,248.60 250.95,319.31 250.95,390.02 C 250.95,460.73 321.66,531.44 392.37,531.44 C 463.08,531.44 533.79,460.73 533.79,390.02 C 533.79,319.31 463.08,248.60 392.37,248.60 Z" />
  </g>

  <g id="base_broken_strands" fill="none" stroke="#000000" stroke-width="7.0" stroke-linecap="round" stroke-linejoin="round">
    <path id="curve_001_from_ring2" d="M 331.46,501.89 C 367.00,474.73 392.37,432.37 392.37,390.02 C 392.37,347.67 367.00,305.31 331.46,278.15 M 311.37,265.06 C 292.42,254.68 271.68,248.60 250.95,248.60 C 180.24,248.60 109.53,319.31 109.53,390.02 C 109.53,460.73 180.24,531.44 250.95,531.44 C 271.68,531.44 292.42,525.36 311.37,514.98" />
    <path id="curve_002_from_ring1" d="M 311.86,278.15 C 276.32,305.31 250.95,347.67 250.95,390.02 C 250.95,432.37 276.32,474.73 311.86,501.89 M 331.95,514.98 C 350.90,525.36 371.64,531.44 392.37,531.44 C 463.08,531.44 533.79,460.73 533.79,390.02 C 533.79,319.31 463.08,248.60 392.37,248.60 C 371.64,248.60 350.90,254.68 331.95,265.06" />
  </g>

  <g id="crossing_options" fill="none" stroke-linecap="round" stroke-linejoin="round">
    <g id="crossing_001_choose_one">
      <path id="crossing_001_choice_A_curve_001_over" d="M 332.25,278.76 C 325.35,273.42 318.06,268.66 310.49,264.58" stroke="#d62728" stroke-width="7.0" />
      <path id="crossing_001_choice_B_curve_002_over" d="M 332.83,264.58 C 325.26,268.66 317.97,273.42 311.07,278.76" stroke="#1f77b4" stroke-width="7.0" />
    </g>
    <g id="crossing_002_choose_one">
      <path id="crossing_002_choice_A_curve_001_over" d="M 310.49,515.46 C 318.06,511.38 325.35,506.62 332.25,501.28" stroke="#d62728" stroke-width="7.0" />
      <path id="crossing_002_choice_B_curve_002_over" d="M 311.07,501.28 C 317.97,506.62 325.26,511.38 332.83,515.46" stroke="#1f77b4" stroke-width="7.0" />
    </g>
  </g>

  <g id="crossing_labels" font-family="Arial, sans-serif" font-size="12" fill="#666666">
    <text id="crossing_001_label" x="333.66" y="259.23">001</text>
    <text id="crossing_002_label" x="333.66" y="496.81">002</text>
  </g>

  
</svg>