<?xml version='1.0' encoding='utf-8'?>
<svg xmlns="http://www.w3.org/2000/svg" viewBox="95.03 234.1 453.26 336.84">
  <title>Curves generated by point2curveV3.py</title>
  <g id="curves">
    <g id="ring2_divided">
      <path id="ring2_frag_01" d="M 250.95,248.6 C 180.24,248.6 109.53,319.31 109.53,390.02 C 109.53,397.299511 110.279417,404.579022 111.7011,411.781382" fill="none" stroke="#F22424" stroke-width="5" stroke-linecap="round" stroke-linejoin="round" transform="translate(0 0)" />
      <path id="ring2_frag_02" d="M 111.7011,411.781382 C 124.089022,474.539605 187.519511,531.44 250.95,531.44 C 314.380489,531.44 377.810978,474.539605 390.1989,411.781382" fill="none" stroke="#24F224" stroke-width="5" stroke-linecap="round" stroke-linejoin="round" transform="translate(0 25)" />
      <path id="ring2_frag_03" d="M 390.1989,411.781382 C 391.620583,404.579022 392.37,397.299511 392.37,390.02 C 392.37,319.31 321.66,248.6 250.95,248.6" fill="none" stroke="#2424F2" stroke-width="5" stroke-linecap="round" stroke-linejoin="round" transform="translate(0 50)" />
    </g>
    <path id="ring1" d="M 392.37 248.6 C 321.66 248.6 250.95 319.31 250.95 390.02 C 250.95 460.73 321.66 531.44 392.37 531.44 C 463.08 531.44 533.79 460.73 533.79 390.02 C 533.79 319.31 463.08 248.6 392.37 248.6 Z" fill="none" stroke="#000000" stroke-width="5" stroke-linecap="round" stroke-linejoin="round" />
  </g>
</svg>