<?xml version='1.0' encoding='utf-8'?>
<svg xmlns="http://www.w3.org/2000/svg" viewBox="35.383 56.03 551.474 579.223">
  <title>Curves generated by point2curveV3.py</title>
  <g id="curves">
    <path id="Layer_2" d="M 311.12 70.53 C 415.394993 70.53 519.669986 154.172128 511.12 220.53 C 502.570014 286.887872 381.19505 335.961488 311.12 370.53 C 271.952498 389.851602 248.811603 404.641666 251.12 420.53 C 253.428397 436.418334 281.186088 453.40494 311.12 470.53 C 341.053912 487.65506 373.164046 504.918575 371.12 520.53 C 369.075954 536.141425 332.87773 550.100761 311.12 570.53 C 289.36227 590.959239 282.045035 617.858381 251.12 620.53 C 195.791646 625.309827 64.896563 552.539244 51.12 470.53 C 35.339384 376.591013 173.229692 270.53 311.12 270.53 C 449.010308 270.53 586.900616 376.591013 571.12 470.53 C 557.343437 552.539244 426.448354 625.309827 371.12 620.53 C 340.194965 617.858381 332.87773 590.959239 311.12 570.53 C 289.36227 550.100761 253.164046 536.141425 251.12 520.53 C 249.075954 504.918575 281.186088 487.65506 311.12 470.53 C 341.053912 453.40494 368.811603 436.418334 371.12 420.53 C 373.428397 404.641666 350.287502 389.851602 311.12 370.53 C 241.04495 335.961488 119.669986 286.887872 111.12 220.53 C 102.570014 154.172128 206.845007 70.53 311.12 70.53 Z" fill="none" stroke="#000000" stroke-width="5" stroke-linecap="round" stroke-linejoin="round" />
    <g id="anchor_points">
      <g id="Layer_2_anchors">
        <circle cx="311.12" cy="70.53" r="2" fill="#000000" stroke="none" />
        <circle cx="511.12" cy="220.53" r="2" fill="#000000" stroke="none" />
        <circle cx="311.12" cy="370.53" r="2" fill="#000000" stroke="none" />
        <circle cx="251.12" cy="420.53" r="2" fill="#000000" stroke="none" />
        <circle cx="311.12" cy="470.53" r="2" fill="#000000" stroke="none" />
        <circle cx="371.12" cy="520.53" r="2" fill="#000000" stroke="none" />
        <circle cx="311.12" cy="570.53" r="2" fill="#000000" stroke="none" />
        <circle cx="251.12" cy="620.53" r="2" fill="#000000" stroke="none" />
        <circle cx="51.12" cy="470.53" r="2" fill="#000000" stroke="none" />
        <circle cx="311.12" cy="270.53" r="2" fill="#000000" stroke="none" />
        <circle cx="571.12" cy="470.53" r="2" fill="#000000" stroke="none" />
        <circle cx="371.12" cy="620.53" r="2" fill="#000000" stroke="none" />
        <circle cx="311.12" cy="570.53" r="2" fill="#000000" stroke="none" />
        <circle cx="251.12" cy="520.53" r="2" fill="#000000" stroke="none" />
        <circle cx="311.12" cy="470.53" r="2" fill="#000000" stroke="none" />
        <circle cx="371.12" cy="420.53" r="2" fill="#000000" stroke="none" />
        <circle cx="311.12" cy="370.53" r="2" fill="#000000" stroke="none" />
        <circle cx="111.12" cy="220.53" r="2" fill="#000000" stroke="none" />
      </g>
    </g>
  </g>
</svg>